<?xml version="1.0" encoding="iso-8859-1"?>
<!-- Generator: Adobe Illustrator 19.0.0, SVG Export Plug-In . SVG Version: 6.00 Build 0)  -->
<svg version="1.1" id="Layer_1" xmlns="http://www.w3.org/2000/svg" xmlns:xlink="http://www.w3.org/1999/xlink" x="0px" y="0px"
	 viewBox="0 0 512 512" style="enable-background:new 0 0 512 512;" xml:space="preserve">
<path style="fill:#F6BB42;" d="M330.656,245.328H281.75l34.594-34.594c4.156-4.156,4.156-10.906,0-15.062
	c-4.188-4.187-10.937-4.187-15.094,0l-34.594,34.578v-48.922c0-5.875-4.781-10.656-10.656-10.656
	c-5.906,0-10.687,4.781-10.687,10.656v48.922l-34.562-34.578c-4.188-4.187-10.938-4.187-15.094,0
	c-4.156,4.156-4.156,10.906,0,15.062l34.594,34.594h-48.938c-5.875,0-10.657,4.781-10.657,10.672s4.781,10.672,10.657,10.672h48.938
	l-34.594,34.594c-4.156,4.155-4.156,10.906,0,15.078c4.157,4.172,10.906,4.172,15.094,0l34.562-34.594v48.922
	c0,5.875,4.781,10.656,10.687,10.656c5.875,0,10.656-4.781,10.656-10.656V281.75l34.594,34.578c0,0,0,0,0,0.016
	c4.157,4.172,10.906,4.172,15.094,0c4.156-4.172,4.156-10.923,0-15.078l-34.594-34.594h48.906c5.906,0,10.656-4.781,10.656-10.672
	S336.562,245.328,330.656,245.328z"/>
<path style="fill:#FFCE54;" d="M293.719,293.703c-20.844,20.844-54.625,20.844-75.437,0c-20.845-20.812-20.845-54.594,0-75.406
	c20.812-20.844,54.593-20.844,75.437,0C314.531,239.109,314.531,272.891,293.719,293.703z"/>
<g>
	<path style="fill:#E6E9ED;" d="M256,0C114.594,0,0,114.609,0,256s114.594,256,256,256c141.375,0,256-114.609,256-256
		S397.375,0,256,0z M421.938,421.938c-21.562,21.547-46.655,38.483-74.594,50.297c-28.937,12.235-59.656,18.438-91.344,18.438
		c-31.687,0-62.438-6.202-91.344-18.438c-27.938-11.813-53.031-28.75-74.593-50.297c-21.563-21.562-38.5-46.656-50.313-74.609
		C27.532,318.421,21.313,287.688,21.313,256s6.219-62.422,18.438-91.328c11.812-27.953,28.75-53.047,50.313-74.609
		c21.562-21.547,46.655-38.484,74.593-50.297C193.562,27.531,224.313,21.328,256,21.328c31.688,0,62.407,6.203,91.344,18.438
		c27.938,11.812,53.031,28.75,74.594,50.297c21.562,21.562,38.47,46.656,50.281,74.609c12.25,28.906,18.438,59.641,18.438,91.328
		c0,31.688-6.188,62.421-18.438,91.328C460.407,375.281,443.5,400.375,421.938,421.938z"/>
	<path style="fill:#E6E9ED;" d="M256,96c-88.375,0-160,71.641-160,160c0,88.36,71.625,160,160,160c88.344,0,160-71.64,160-160
		C416,167.641,344.344,96,256,96z M394.656,256c0,18.734-3.656,36.891-10.875,53.969c-7,16.516-17,31.343-29.75,44.078
		c-12.719,12.751-27.562,22.751-44.062,29.734c-17.095,7.235-35.251,10.891-53.97,10.891c-18.75,0-36.906-3.655-53.968-10.891
		c-16.532-6.983-31.345-16.983-44.094-29.734c-12.75-12.735-22.75-27.562-29.719-44.078C121,292.891,117.313,274.734,117.313,256
		s3.687-36.891,10.906-53.969c6.969-16.516,16.969-31.344,29.719-44.078c12.75-12.75,27.562-22.75,44.094-29.734
		c17.062-7.234,35.219-10.891,53.968-10.891c18.719,0,36.875,3.657,53.97,10.891c16.499,6.984,31.343,16.984,44.062,29.734
		c12.75,12.734,22.75,27.562,29.75,44.078C391,219.109,394.656,237.266,394.656,256z"/>
</g>
<path style="fill:#FC6E51;" d="M452.562,407.328c12.501,12.5,12.501,32.75,0,45.251c-12.499,12.499-32.75,12.499-45.25,0
	c-12.5-12.501-12.5-32.751,0-45.251S440.063,394.828,452.562,407.328z"/>
<path style="fill:#ED5565;" d="M150.407,182.406c-17.688,0-32-14.328-32-32s14.312-32,32-32c17.657,0,32,14.328,32,32
	S168.063,182.406,150.407,182.406z"/>
<g>
</g>
<g>
</g>
<g>
</g>
<g>
</g>
<g>
</g>
<g>
</g>
<g>
</g>
<g>
</g>
<g>
</g>
<g>
</g>
<g>
</g>
<g>
</g>
<g>
</g>
<g>
</g>
<g>
</g>
</svg>
